<svg width="72" height="72" viewBox="0 0 72 72" fill="none" xmlns="http://www.w3.org/2000/svg">
    <rect width="72" height="72" rx="8" fill="black"/>
    <path d="M4.95881 28.4432V26.0213L11.0312 16.4545H13.1193V19.8068H11.8835L8.0554 25.8651V25.9787H16.6847V28.4432H4.95881ZM11.9403 31V27.7045L11.9972 26.6321V16.4545H14.8807V31H11.9403ZM24.4368 31.3196C23.2152 31.3149 22.1641 31.0142 21.2834 30.4176C20.4074 29.821 19.7327 28.9569 19.2592 27.8253C18.7905 26.6937 18.5585 25.3324 18.5632 23.7415C18.5632 22.1553 18.7976 20.8035 19.2663 19.6861C19.7398 18.5687 20.4145 17.7187 21.2905 17.1364C22.1712 16.5492 23.2199 16.2557 24.4368 16.2557C25.6536 16.2557 26.7 16.5492 27.576 17.1364C28.4567 17.7235 29.1338 18.5758 29.6072 19.6932C30.0807 20.8059 30.3151 22.1553 30.3104 23.7415C30.3104 25.3371 30.0736 26.7008 29.6001 27.8324C29.1314 28.964 28.459 29.8281 27.5831 30.4247C26.7071 31.0213 25.6584 31.3196 24.4368 31.3196ZM24.4368 28.7699C25.2701 28.7699 25.9354 28.3509 26.4325 27.5128C26.9297 26.6747 27.1759 25.4176 27.1712 23.7415C27.1712 22.6383 27.0575 21.7197 26.8303 20.9858C26.6077 20.2519 26.2905 19.7003 25.8786 19.331C25.4714 18.9616 24.9908 18.777 24.4368 18.777C23.6082 18.777 22.9453 19.1913 22.4482 20.0199C21.951 20.8485 21.7 22.089 21.6953 23.7415C21.6953 24.8589 21.8066 25.7917 22.0291 26.5398C22.2564 27.2831 22.576 27.8419 22.9879 28.2159C23.3999 28.5852 23.8828 28.7699 24.4368 28.7699ZM34.3001 29.3097C33.8313 29.3097 33.4289 29.1439 33.0927 28.8125C32.7612 28.4811 32.5955 28.0786 32.5955 27.6051C32.5955 27.1411 32.7612 26.7434 33.0927 26.4119C33.4289 26.0805 33.8313 25.9148 34.3001 25.9148C34.7546 25.9148 35.1523 26.0805 35.4933 26.4119C35.8342 26.7434 36.0046 27.1411 36.0046 27.6051C36.0046 27.9176 35.9241 28.2041 35.7631 28.4645C35.6069 28.7202 35.4009 28.9261 35.1452 29.0824C34.8896 29.2339 34.6078 29.3097 34.3001 29.3097ZM34.3001 22.1719C33.8313 22.1719 33.4289 22.0062 33.0927 21.6747C32.7612 21.3433 32.5955 20.9408 32.5955 20.4673C32.5955 20.0033 32.7612 19.608 33.0927 19.2812C33.4289 18.9498 33.8313 18.7841 34.3001 18.7841C34.7546 18.7841 35.1523 18.9498 35.4933 19.2812C35.8342 19.608 36.0046 20.0033 36.0046 20.4673C36.0046 20.7846 35.9241 21.0734 35.7631 21.3338C35.6069 21.5895 35.4009 21.7931 35.1452 21.9446C34.8896 22.0961 34.6078 22.1719 34.3001 22.1719ZM44.1634 31.3196C42.9418 31.3149 41.8906 31.0142 41.0099 30.4176C40.134 29.821 39.4593 28.9569 38.9858 27.8253C38.517 26.6937 38.285 25.3324 38.2898 23.7415C38.2898 22.1553 38.5241 20.8035 38.9929 19.6861C39.4664 18.5687 40.1411 17.7187 41.017 17.1364C41.8977 16.5492 42.9465 16.2557 44.1634 16.2557C45.3802 16.2557 46.4266 16.5492 47.3026 17.1364C48.1832 17.7235 48.8603 18.5758 49.3338 19.6932C49.8073 20.8059 50.0417 22.1553 50.0369 23.7415C50.0369 25.3371 49.8002 26.7008 49.3267 27.8324C48.858 28.964 48.1856 29.8281 47.3097 30.4247C46.4337 31.0213 45.3849 31.3196 44.1634 31.3196ZM44.1634 28.7699C44.9967 28.7699 45.6619 28.3509 46.1591 27.5128C46.6563 26.6747 46.9025 25.4176 46.8977 23.7415C46.8977 22.6383 46.7841 21.7197 46.5568 20.9858C46.3343 20.2519 46.017 19.7003 45.6051 19.331C45.1979 18.9616 44.7173 18.777 44.1634 18.777C43.3348 18.777 42.6719 19.1913 42.1747 20.0199C41.6776 20.8485 41.4266 22.089 41.4219 23.7415C41.4219 24.8589 41.5331 25.7917 41.7557 26.5398C41.983 27.2831 42.3026 27.8419 42.7145 28.2159C43.1264 28.5852 43.6094 28.7699 44.1634 28.7699ZM57.9329 31.3196C56.7113 31.3149 55.6602 31.0142 54.7795 30.4176C53.9035 29.821 53.2288 28.9569 52.7553 27.8253C52.2866 26.6937 52.0546 25.3324 52.0593 23.7415C52.0593 22.1553 52.2937 20.8035 52.7624 19.6861C53.2359 18.5687 53.9106 17.7187 54.7866 17.1364C55.6673 16.5492 56.716 16.2557 57.9329 16.2557C59.1497 16.2557 60.1961 16.5492 61.0721 17.1364C61.9528 17.7235 62.6299 18.5758 63.1033 19.6932C63.5768 20.8059 63.8112 22.1553 63.8065 23.7415C63.8065 25.3371 63.5697 26.7008 63.0962 27.8324C62.6275 28.964 61.9551 29.8281 61.0792 30.4247C60.2032 31.0213 59.1545 31.3196 57.9329 31.3196ZM57.9329 28.7699C58.7662 28.7699 59.4315 28.3509 59.9286 27.5128C60.4258 26.6747 60.672 25.4176 60.6673 23.7415C60.6673 22.6383 60.5536 21.7197 60.3263 20.9858C60.1038 20.2519 59.7866 19.7003 59.3746 19.331C58.9674 18.9616 58.4869 18.777 57.9329 18.777C57.1043 18.777 56.4414 19.1913 55.9442 20.0199C55.4471 20.8485 55.1961 22.089 55.1914 23.7415C55.1914 24.8589 55.3027 25.7917 55.5252 26.5398C55.7525 27.2831 56.0721 27.8419 56.484 28.2159C56.896 28.5852 57.3789 28.7699 57.9329 28.7699Z" fill="white"/>
    <!-- green -->
    <circle cx="26" cy="44" r="3.5" fill="#09DB30" stroke="#00C023"/>
    <circle cx="26" cy="44" r="4" fill="white" fill-opacity="0.75"/>
    <!-- yellow -->
    <circle cx="36" cy="44" r="3.5" fill="#FFFF00" stroke="#E5E500"/>
    <circle cx="36" cy="44" r="4" fill="white" fill-opacity="0.75"/>
    <!-- red -->
    <circle cx="46" cy="44" r="3.5" fill="#FF0000" stroke="#D50000"/>
    <circle cx="46" cy="44" r="4" fill="white" fill-opacity="0.75"/>
    <!-- progress bar -->
    <!-- base --> <rect x="4" y="52" width="64" height="8" rx="4" fill="white"/>
    <!-- progress --> <rect x="4.5" y="52.5" width="8" height="7" rx="3.5" fill="#09DB30" stroke="#00C023"/>
</svg>
